<svg width="1000" height="1000" viewBox="0 0 1000 1000" fill="none" xmlns="http://www.w3.org/2000/svg">
<rect width="1000" height="1000" fill="white"/>
<g clip-path="url(#clip0_911_147)">
<path d="M500 750C638.071 750 750 638.071 750 500C750 361.929 638.071 250 500 250C361.929 250 250 361.929 250 500C250 638.071 361.929 750 500 750Z" fill="#EB0029"/>
<path d="M506.563 375L355.469 444.844L393.125 588.125L421.875 584.531L413.906 494.531L423.438 490.313L439.531 582.344L488.594 576.406L479.844 477.031L489.063 472.969L507.031 574.219L556.563 568.125L547.031 459.063L556.406 455L575.938 565.625L625 559.687V404.531L506.563 375ZM510.156 592.187L512.656 606.25L625 625V578.125L510.312 592.187H510.156Z" fill="white"/>
</g>
<defs>
<clipPath id="clip0_911_147">
<rect width="500" height="500" fill="white" transform="translate(250 250)"/>
</clipPath>
</defs>
</svg>
